<?xml version="1.0" standalone="no"?>
<!DOCTYPE svg PUBLIC "-//W3C//DTD SVG 20010904//EN"
 "http://www.w3.org/TR/2001/REC-SVG-20010904/DTD/svg10.dtd">
<svg version="1.0" xmlns="http://www.w3.org/2000/svg"
 width="260.000000pt" height="260.000000pt" viewBox="0 0 260.000000 260.000000"
 preserveAspectRatio="xMidYMid meet">
<metadata>
Created by potrace 1.11, written by Peter Selinger 2001-2013
</metadata>
<g transform="translate(0.000000,260.000000) scale(0.100000,-0.100000)"
fill="#000000" stroke="none">
<path d="M1110 2569 c-274 -24 -514 -183 -656 -434 -62 -110 -112 -258 -129
-378 -4 -27 -9 -59 -11 -70 -6 -29 -6 -296 0 -326 3 -12 8 -43 10 -68 12 -95
54 -229 102 -326 120 -237 334 -396 586 -437 33 -5 62 -11 64 -13 5 -4 -235
-103 -282 -116 -19 -5 -51 -5 -80 1 -85 16 -235 13 -272 -6 -41 -21 -43 -56
-5 -77 38 -20 183 -18 264 5 62 17 70 17 121 2 31 -9 123 -43 204 -77 415
-170 454 -184 599 -215 29 -6 196 -6 225 0 14 3 41 9 60 12 69 13 178 74 228
129 49 53 105 150 137 237 14 39 15 51 5 63 -18 21 -23 19 -44 -16 -55 -93
-147 -160 -264 -190 -61 -17 -106 -21 -217 -20 -142 1 -164 3 -245 15 -25 4
-58 10 -75 12 -16 3 -57 9 -90 15 -33 6 -71 13 -85 15 -14 3 -70 13 -125 24
-99 19 -134 25 -207 37 -21 3 -38 8 -38 12 0 3 60 30 134 58 131 52 225 79
309 89 57 7 165 39 223 67 266 125 462 408 510 737 3 25 8 56 10 70 6 41 6
272 0 315 -3 22 -8 60 -11 85 -3 25 -17 85 -31 134 -57 201 -159 359 -302 469
-164 126 -389 186 -622 166z m186 -60 c105 -25 219 -106 302 -215 64 -83 147
-274 167 -382 3 -15 7 -38 10 -52 2 -14 7 -36 9 -50 24 -123 24 -385 0 -535
-12 -74 -16 -94 -30 -149 -80 -310 -243 -506 -457 -550 -229 -47 -450 82 -580
339 -34 68 -84 213 -92 266 -4 24 -8 46 -10 49 -3 5 -6 22 -21 134 -12 88 -5
362 12 451 2 11 9 46 15 78 14 81 62 223 98 295 109 216 260 327 451 331 43 1
99 -3 126 -10z"/>
</g>
</svg>
