<?xml version="1.0" encoding="UTF-8" standalone="no"?><!DOCTYPE svg PUBLIC "-//W3C//DTD SVG 1.1//EN" "http://www.w3.org/Graphics/SVG/1.1/DTD/svg11.dtd"><svg width="100%" height="100%" viewBox="0 0 800 800" version="1.1" xmlns="http://www.w3.org/2000/svg" xmlns:xlink="http://www.w3.org/1999/xlink" xml:space="preserve" xmlns:serif="http://www.serif.com/" style="fill-rule:evenodd;clip-rule:evenodd;stroke-linejoin:round;stroke-miterlimit:2;"><path d="M388.089,-0.499l39.877,0.839c101.407,7.822 222.489,54.773 306.225,179.193l-38.057,0c-47.499,-63.304 -110.137,-103.643 -164.941,-124.37c-27.35,-10.333 -56.282,-17.302 -83.473,-21.236l-2.716,0.282c43.753,47.538 76.536,97.287 98.215,145.324l-34.734,0c-21.732,-42.981 -51.455,-87.051 -93.099,-130.51l0,130.513l-31.991,0l0,-130.933c-42.225,42.354 -71.104,87.849 -93.812,130.93l-35.182,0c23.288,-48.048 54.145,-97.791 98.69,-145.364c0,0 0.396,-0.242 -0.685,-0.242c-3.877,0 -39.086,7.123 -45.68,8.909c-12.211,3.36 -24.738,7.503 -36.923,11.752c-57.837,20.41 -130.813,70.183 -175.385,137.916l140.651,0l-12.264,31.561l-147.35,0c-26.901,48.989 -40.167,99.703 -44.017,148.816l161.644,0l0,31.699l-161.776,0l-0.448,0.369c-0.238,3.671 -0.238,7.894 0.633,21.693c3.296,51.948 18.725,105.755 48.553,157.682l160.589,0c0,0 0.344,0.391 0.344,-0.656c0,-1.053 -2.638,-7.127 -3.93,-10.842c-5.565,-15.59 -10.048,-32.559 -13.846,-48.726c-7.042,-29.338 -11.736,-60.541 -14.137,-89.873c-0.553,-6.921 -1.002,-6.13 0,-16.096l31.385,0c-0.685,1.389 -0.553,2.312 -0.501,3.465c0.264,2.094 0.158,4.676 0.633,10.083c4.061,50.271 14.215,102.427 34.313,152.656l108.659,0l0,-166.223l31.543,0l0,166.123l108.079,0c8.071,-21.587 16.062,-43.638 20.149,-65.265c2.322,-12.274 5.961,-24.762 8.176,-37.361c2.77,-16.312 3.983,-32.727 5.566,-49.097c0.685,-6.662 0.843,-10.462 0.553,-13.733l-0.501,-0.648l31.385,0c0.897,7.553 0.263,10.686 0.053,16.929c-0.132,5.878 -1.477,12.243 -2.005,18.061c-4.246,43.666 -13.846,87.165 -29.485,131.016l162.619,0c29.724,-51.579 45.047,-105.6 48.554,-157.495c0.343,-4.985 0.449,-6.657 0.053,-8.53l31.385,0c0.448,4.323 0.395,5.256 0.053,9.822c-1.293,14.75 -2.875,30.77 -6.013,46.199c-14.295,69.639 -42.884,139.532 -110.348,209.175c-56.123,57.982 -139.069,95.615 -193.214,106.792c-20.123,4.148 -42.092,8.139 -62.11,9.558c-5.855,0.416 -14.716,0.406 -16.404,0.841l-39.877,-0.841c-13.978,-0.636 -29.354,-2.999 -43.701,-5.626c-69.864,-12.907 -140.783,-42.504 -211.307,-110.305c-57.969,-55.775 -97.292,-141.632 -107.683,-195.321c-1.187,-6.298 -2.901,-12.601 -3.903,-18.891c-2.295,-13.383 -5.17,-39.659 -5.17,-40.708l0,-57.622c0,-1.049 1.978,-18.498 3.165,-27.676c2.11,-15.642 5.512,-32.674 9.943,-48.731c16.51,-58.984 45.732,-118.795 103.648,-178.51c47.843,-49.327 119.658,-86.06 163.412,-98.445c9.6,-2.727 19.806,-5.776 29.407,-7.976c19.965,-4.673 42.039,-8.091 62.189,-9.507c5.776,-0.417 14.611,-0.414 16.325,-0.839Zm27.192,616.353l0,134.667c44.808,-44.859 73.028,-90.309 94.338,-134.667l-94.338,0Zm129.309,0c-22.813,49.477 -52.536,100.798 -100.853,150.517c28.669,-3.338 59.078,-11.069 87.614,-21.616c55.2,-20.368 122.11,-64.153 168,-128.901l-154.761,0Zm-256.141,0c20.994,44.991 50.849,90.438 95.157,134.667l0,-134.667l-95.157,0Zm-188.071,0c46.286,65.533 113.566,108.641 169.293,129.479c11.631,4.349 25.187,8.609 36.95,11.75c15.719,4.204 32.229,7.466 47.657,8.869c-47.499,-50.189 -79.148,-100.085 -100.378,-150.098l-153.522,0Z" style="fill:#fff;fill-rule:nonzero;"/><path d="M250.207,192.317l118.181,0l0,54.242l-90.699,0c-2.664,4.769 -5.064,8.944 -7.675,25.161l98.374,0l0,53.462c0,0 -108.29,0.029 -108.29,0.034c-1.767,3.927 -2.506,10.637 -3.745,23.734l112.035,0l0,55.348l-159.93,0c-1.425,-72.473 9.653,-146.216 41.749,-211.981Z" style="fill:#fff;fill-rule:nonzero;"/><path d="M743.395,192.317c12.923,23.382 15.825,30.991 24.396,53.839l-112.062,-0.016c-4.985,0.016 2.031,24.746 8.466,24.746l111.086,0c12.185,29.178 33.521,133.016 10.945,133.412l-173.724,0c0,0 -2.795,-26 -3.876,-55.317c0,0 132.844,-0.055 133.082,-0.039c3.428,0.24 -2.849,-23.81 -5.987,-23.81l-114.647,0c0,0 -12.105,-1.348 -15.56,-17.882c-3.508,-16.539 -24.95,-84.657 -24.95,-84.657c0,0 -6.988,-30.276 9.732,-30.276l153.099,0Z" style="fill:#fff;fill-rule:nonzero;"/><path d="M383.447,192.317l158.401,0c5.169,-0.029 10.734,11.264 11.71,13.102c9.863,19.633 16.325,39.252 21.441,58.832c3.903,15.07 8.282,32.078 8.282,47.087c0,3.885 -0.132,9.112 -3.93,13.609l-139.728,0l0,79.351l-56.176,0l0,-211.981Zm55.833,53.749l0,24.717l82.84,0c1.055,0.029 1.926,-0.506 2.374,-1.384l0,-5.037c0,-0.631 -5.117,-18.328 -9.073,-18.296l-76.141,0Z" style="fill:#fff;fill-rule:nonzero;"/></svg>