<?xml version="1.0" encoding="UTF-8" standalone="no"?><!DOCTYPE svg PUBLIC "-//W3C//DTD SVG 1.1//EN" "http://www.w3.org/Graphics/SVG/1.1/DTD/svg11.dtd"><svg width="100%" height="100%" viewBox="0 0 106 81" version="1.1" xmlns="http://www.w3.org/2000/svg" xmlns:xlink="http://www.w3.org/1999/xlink" xml:space="preserve" xmlns:serif="http://www.serif.com/" style="fill-rule:evenodd;clip-rule:evenodd;stroke-linecap:round;stroke-linejoin:round;stroke-miterlimit:1.5;"><g id="Video-Icon" serif:id="Video Icon"><rect x="3" y="3" width="100" height="75" style="fill:none;stroke:#c0d3e2;stroke-width:5.67px;"/><path d="M103,18.209l-100,0l0,-15.209l100,0l0,15.209Zm-29.224,-11.663l-16.347,0c-1.035,0 -1.875,0.909 -1.875,2.029l0,4.059c0,1.12 0.84,2.029 1.875,2.029l16.347,0c1.035,0 1.875,-0.909 1.875,-2.029l0,-4.059c0,-1.12 -0.84,-2.029 -1.875,-2.029Zm-50.485,0l-16.346,0c-1.035,0 -1.875,0.909 -1.875,2.029l0,4.059c0,1.12 0.84,2.029 1.875,2.029l16.346,0c1.036,0 1.876,-0.909 1.876,-2.029l0,-4.059c0,-1.12 -0.84,-2.029 -1.876,-2.029Zm25.243,0l-16.347,0c-1.035,0 -1.875,0.909 -1.875,2.029l0,4.059c0,1.12 0.84,2.029 1.875,2.029l16.347,0c1.035,0 1.875,-0.909 1.875,-2.029l0,-4.059c0,-1.12 -0.84,-2.029 -1.875,-2.029Zm50.484,0l-16.347,0c-1.035,0 -1.875,0.909 -1.875,2.029l0,4.059c0,1.12 0.84,2.029 1.875,2.029l16.347,0c1.035,0 1.875,-0.909 1.875,-2.029l0,-4.059c0,-1.12 -0.84,-2.029 -1.875,-2.029Z" style="fill:#c0d3e2;"/><path d="M103,78l-100,0l0,-15.209l100,0l0,15.209Zm-79.69,-11.663l-16.346,0c-1.036,0 -1.876,0.91 -1.876,2.029l0,4.059c0,1.12 0.841,2.029 1.876,2.029l16.346,0c1.035,0 1.876,-0.909 1.876,-2.029l0,-4.059c0,-1.119 -0.841,-2.029 -1.876,-2.029Zm50.484,0l-16.346,0c-1.035,0 -1.876,0.909 -1.876,2.029l0,4.059c0,1.12 0.841,2.029 1.876,2.029l16.346,0c1.035,0 1.876,-0.909 1.876,-2.029l0,-4.059c0,-1.12 -0.841,-2.029 -1.876,-2.029Zm25.242,0l-16.346,0c-1.035,0 -1.876,0.91 -1.876,2.029l0,4.059c0,1.12 0.841,2.029 1.876,2.029l16.346,0c1.035,0 1.876,-0.909 1.876,-2.029l0,-4.059c0,-1.119 -0.84,-2.029 -1.876,-2.029Zm-50.484,0l-16.346,0c-1.035,0 -1.876,0.909 -1.876,2.029l0,4.059c0,1.12 0.841,2.029 1.876,2.029l16.346,0c1.035,0 1.876,-0.909 1.876,-2.029l0,-4.059c0,-1.12 -0.841,-2.029 -1.876,-2.029Z" style="fill:#c0d3e2;"/><path d="M63.218,40.5l-20.436,13.708l0,-27.416l20.436,13.708Z" style="fill:#c0d3e2;"/></g></svg>