<?xml version="1.0" encoding="UTF-8" standalone="no"?><!DOCTYPE svg PUBLIC "-//W3C//DTD SVG 1.1//EN" "http://www.w3.org/Graphics/SVG/1.1/DTD/svg11.dtd"><svg width="100%" height="100%" viewBox="0 0 154 154" version="1.1" xmlns="http://www.w3.org/2000/svg" xmlns:xlink="http://www.w3.org/1999/xlink" xml:space="preserve" xmlns:serif="http://www.serif.com/" style="fill-rule:evenodd;clip-rule:evenodd;stroke-linejoin:round;stroke-miterlimit:1.41421;"><path id="Logo-Black" serif:id="Logo Black" d="M138.377,0c8.468,0 15.343,6.875 15.343,15.343l0,123.034c0,8.468 -6.875,15.343 -15.343,15.343l-122.854,0c-8.468,0 -15.343,-6.875 -15.343,-15.343l0,-123.034c0,-8.468 6.875,-15.343 15.343,-15.343l122.854,0Zm-99.276,138.198l7.38,-26.931l-5.343,0l-4.406,17.362l-5.205,-17.362l-3.495,0l-5.127,17.401l-4.195,-17.401l-5.438,0l7.302,26.931l4.079,0l5.088,-16.094l5.088,16.094l4.272,0Zm25.222,-27.291l-4.931,0l0,26.931l4.931,0l0,-26.931Zm35.855,4.458l0,-4.458l-17.601,0l0,26.931l17.601,0l0,-4.412l-12.67,0l0,-6.952l10.679,0l0,-4.458l-10.679,0l0,-6.651l12.67,0Zm37.644,22.473l0,-26.931l-4.921,0l-0.049,16.596l-10.778,-16.596l-4.807,0l0.097,26.931l5.244,0l0.097,-16.598l10.778,16.598l4.339,0Zm-44.499,-122.216l-16.373,0l0,48.045c0.397,14.851 14.706,27.439 27.869,27.809l0.063,-16.188c-2.663,-0.596 -5.596,-2.386 -7.441,-4.297c-2.887,-2.992 -3.976,-6.044 -4.056,-8.35l-0.062,-47.019Zm44.499,0l0,48.045c-0.398,14.851 -14.706,27.439 -27.87,27.809l-0.062,-16.188c2.662,-0.596 5.596,-2.386 7.44,-4.297c2.887,-2.992 3.976,-6.044 4.057,-8.35l0.062,-47.019l16.373,0Zm-88.596,21.237l-16.723,0l0,54.319l16.723,0l0,-54.319Zm19.845,-21.237l-57.046,0l0,16.143l57.046,0l0,-16.143Z"/></svg>