<?xml version="1.0" encoding="UTF-8" standalone="no"?><!DOCTYPE svg PUBLIC "-//W3C//DTD SVG 1.1//EN" "http://www.w3.org/Graphics/SVG/1.1/DTD/svg11.dtd"><svg width="100%" height="100%" viewBox="0 0 364 201" version="1.1" xmlns="http://www.w3.org/2000/svg" xmlns:xlink="http://www.w3.org/1999/xlink" xml:space="preserve" xmlns:serif="http://www.serif.com/" style="fill-rule:evenodd;clip-rule:evenodd;stroke-linecap:square;stroke-linejoin:round;stroke-miterlimit:1.5;"><g id="Logo-White" serif:id="Logo White"><g id="Text"><path d="M218.218,159.294c0,0 -16.751,-4.076 -16.625,4.9c0.095,6.764 18.017,5.753 18.144,14.604c0.126,8.85 -18.586,6.258 -19.851,4.488" style="fill:none;stroke:#fff;stroke-width:2.5px;"/><path d="M115.31,186.717l3.794,-29.522l12.327,13.921l12.138,-13.921l3.477,29.522l-2.339,0l-2.972,-23.567l-10.114,12.012l-10.747,-11.949l-2.782,23.504l-2.782,0" style="fill:#fff;"/><rect x="155.201" y="157.195" width="2.971" height="29.523" style="fill:#fff;"/><rect x="252.221" y="157.195" width="2.971" height="29.523" style="fill:#fff;"/><path d="M167.708,186.717l-0.126,-29.522l22.379,23.942l-0.063,-23.942l2.781,0l0.064,30.769l-22.379,-24.086l-0.253,22.839l-2.403,0" style="fill:#fff;"/><g><rect x="41.543" y="157.195" width="23.833" height="2.099" style="fill:#fff;"/><rect x="50.962" y="159.294" width="2.497" height="27.423" style="fill:#fff;"/></g><g><rect x="224.243" y="157.195" width="23.833" height="2.099" style="fill:#fff;"/><rect x="233.662" y="159.294" width="2.497" height="27.423" style="fill:#fff;"/></g><g><rect x="261.863" y="157.195" width="23.833" height="2.099" style="fill:#fff;"/><rect x="271.282" y="159.294" width="2.497" height="27.423" style="fill:#fff;"/></g><g><rect x="319.283" y="157.195" width="23.833" height="2.099" style="fill:#fff;"/><rect x="328.702" y="159.294" width="2.497" height="27.423" style="fill:#fff;"/></g><ellipse cx="88.889" cy="172.36" rx="19.278" ry="13.712" style="fill:none;stroke:#fff;stroke-width:2.5px;stroke-linecap:round;"/><path d="M13.918,186.591l2.719,0l4.931,-9.799l14.729,0.19l4.805,9.672l3.034,0.063l-14.856,-29.522l-15.362,29.396Zm15.236,-24.465l-6.575,12.643l12.466,0.138l-5.891,-12.781Z" style="fill:#fff;"/><path d="M313.293,158.371c0,0 0.484,12.425 -0.201,21.335c-0.332,4.312 -4.707,7.011 -10.603,7.011c-9.398,0 -11.119,-5.806 -11.229,-7.109c-0.582,-6.9 -0.172,-21.237 -0.172,-21.237" style="fill:none;stroke:#fff;stroke-width:2.5px;"/></g><g id="Logo"><g><path d="M163.94,75.409l6.53,-0.005" style="fill:none;stroke:#fff;stroke-width:1px;stroke-linecap:round;"/><path d="M173.817,75.409l6.53,-0.005" style="fill:none;stroke:#fff;stroke-width:1px;stroke-linecap:round;"/><path d="M183.695,75.409l6.53,-0.005" style="fill:none;stroke:#fff;stroke-width:1px;stroke-linecap:round;"/><path d="M193.572,75.404l6.53,-0.004" style="fill:none;stroke:#fff;stroke-width:1px;stroke-linecap:round;"/><path d="M203.45,75.4l6.53,-0.005" style="fill:none;stroke:#fff;stroke-width:1px;stroke-linecap:round;"/><path d="M213.327,75.409l6.53,-0.005" style="fill:none;stroke:#fff;stroke-width:1px;stroke-linecap:round;"/><path d="M223.205,75.409l6.53,-0.005" style="fill:none;stroke:#fff;stroke-width:1px;stroke-linecap:round;"/><path d="M233.082,75.404l6.53,-0.004" style="fill:none;stroke:#fff;stroke-width:1px;stroke-linecap:round;"/><path d="M242.96,75.4l6.53,-0.005" style="fill:none;stroke:#fff;stroke-width:1px;stroke-linecap:round;"/></g><g><path d="M163.94,120.283l6.53,-0.005" style="fill:none;stroke:#fff;stroke-width:1px;stroke-linecap:round;"/><path d="M173.817,120.283l6.53,-0.005" style="fill:none;stroke:#fff;stroke-width:1px;stroke-linecap:round;"/><path d="M183.695,120.283l6.53,-0.005" style="fill:none;stroke:#fff;stroke-width:1px;stroke-linecap:round;"/><path d="M193.572,120.278l6.53,-0.004" style="fill:none;stroke:#fff;stroke-width:1px;stroke-linecap:round;"/><path d="M203.45,120.274l6.53,-0.005" style="fill:none;stroke:#fff;stroke-width:1px;stroke-linecap:round;"/><path d="M213.327,120.283l6.53,-0.005" style="fill:none;stroke:#fff;stroke-width:1px;stroke-linecap:round;"/><path d="M223.205,120.283l6.53,-0.005" style="fill:none;stroke:#fff;stroke-width:1px;stroke-linecap:round;"/><path d="M233.082,120.278l6.53,-0.004" style="fill:none;stroke:#fff;stroke-width:1px;stroke-linecap:round;"/><path d="M242.96,120.274l6.53,-0.005" style="fill:none;stroke:#fff;stroke-width:1px;stroke-linecap:round;"/></g><g><path d="M163.94,105.883l6.53,-0.005" style="fill:none;stroke:#fff;stroke-width:1px;stroke-linecap:round;"/><path d="M173.817,105.883l6.53,-0.005" style="fill:none;stroke:#fff;stroke-width:1px;stroke-linecap:round;"/><path d="M183.695,105.883l6.53,-0.005" style="fill:none;stroke:#fff;stroke-width:1px;stroke-linecap:round;"/><path d="M193.572,105.878l6.53,-0.004" style="fill:none;stroke:#fff;stroke-width:1px;stroke-linecap:round;"/><path d="M203.45,105.874l6.53,-0.005" style="fill:none;stroke:#fff;stroke-width:1px;stroke-linecap:round;"/><path d="M213.327,105.883l6.53,-0.005" style="fill:none;stroke:#fff;stroke-width:1px;stroke-linecap:round;"/><path d="M223.205,105.883l6.53,-0.005" style="fill:none;stroke:#fff;stroke-width:1px;stroke-linecap:round;"/><path d="M233.082,105.878l6.53,-0.004" style="fill:none;stroke:#fff;stroke-width:1px;stroke-linecap:round;"/><path d="M242.96,105.874l6.53,-0.005" style="fill:none;stroke:#fff;stroke-width:1px;stroke-linecap:round;"/></g><g><path d="M163.94,89.683l6.53,-0.005" style="fill:none;stroke:#fff;stroke-width:1px;stroke-linecap:round;"/><path d="M173.817,89.683l6.53,-0.005" style="fill:none;stroke:#fff;stroke-width:1px;stroke-linecap:round;"/><path d="M183.695,89.683l6.53,-0.005" style="fill:none;stroke:#fff;stroke-width:1px;stroke-linecap:round;"/><path d="M193.572,89.678l6.53,-0.004" style="fill:none;stroke:#fff;stroke-width:1px;stroke-linecap:round;"/><path d="M203.45,89.674l6.53,-0.005" style="fill:none;stroke:#fff;stroke-width:1px;stroke-linecap:round;"/><path d="M213.327,89.683l6.53,-0.005" style="fill:none;stroke:#fff;stroke-width:1px;stroke-linecap:round;"/><path d="M223.205,89.683l6.53,-0.005" style="fill:none;stroke:#fff;stroke-width:1px;stroke-linecap:round;"/><path d="M233.082,89.678l6.53,-0.004" style="fill:none;stroke:#fff;stroke-width:1px;stroke-linecap:round;"/><path d="M242.96,89.674l6.53,-0.005" style="fill:none;stroke:#fff;stroke-width:1px;stroke-linecap:round;"/></g><path d="M252.837,67.803l0,12.374" style="fill:none;stroke:#fff;stroke-width:1px;stroke-linecap:round;"/><rect x="13.169" y="146.623" width="329.84" height="5.769" style="fill:#fff;"/><path d="M23.869,146.623l17.622,-10.89l0.079,10.89l-17.701,0Z" style="fill:none;stroke:#fff;stroke-width:2px;stroke-linecap:round;"/><path d="M41.57,135.733l0,-127.621l99.965,21.097l-0.008,17.204l-9.63,0.017l-0.099,-9.482l-80.81,-17.03l0.108,107.618l53.34,-0.108l0,8.305l-62.866,0Z" style="fill:none;stroke:#fff;stroke-width:2px;stroke-linecap:round;"/><rect x="121.963" y="46.428" width="169.292" height="14.746" style="fill:none;stroke:#fff;stroke-width:2px;stroke-linecap:round;"/><rect x="101.399" y="61.175" width="210.557" height="6.628" style="fill:none;stroke:#fff;stroke-width:2px;stroke-linecap:round;"/><rect x="104.672" y="67.803" width="7.1" height="78.82" style="fill:none;stroke:#fff;stroke-width:2px;stroke-linecap:round;"/><rect x="257.721" y="85.623" width="68.019" height="51.502" style="fill:none;stroke:#fff;stroke-width:2px;stroke-linecap:round;"/><rect x="250.223" y="80.177" width="82.881" height="66.446" style="fill:none;stroke:#fff;stroke-width:2px;stroke-linecap:round;"/><rect x="301.548" y="67.803" width="7.1" height="12.374" style="fill:none;stroke:#fff;stroke-width:2px;stroke-linecap:round;"/><rect x="111.771" y="127.875" width="138.451" height="7.858" style="fill:none;stroke:#fff;stroke-width:2px;stroke-linecap:round;"/><rect x="163.94" y="67.803" width="6.53" height="60.072" style="fill:none;stroke:#fff;stroke-width:1px;stroke-linecap:round;"/><rect x="173.817" y="67.803" width="6.53" height="60.072" style="fill:none;stroke:#fff;stroke-width:1px;stroke-linecap:round;"/><rect x="183.695" y="67.803" width="6.53" height="60.072" style="fill:none;stroke:#fff;stroke-width:1px;stroke-linecap:round;"/><rect x="193.572" y="67.803" width="6.53" height="60.072" style="fill:none;stroke:#fff;stroke-width:1px;stroke-linecap:round;"/><rect x="203.45" y="67.803" width="6.53" height="60.072" style="fill:none;stroke:#fff;stroke-width:1px;stroke-linecap:round;"/><rect x="213.327" y="67.803" width="6.53" height="60.072" style="fill:none;stroke:#fff;stroke-width:1px;stroke-linecap:round;"/><rect x="223.205" y="67.803" width="6.53" height="60.072" style="fill:none;stroke:#fff;stroke-width:1px;stroke-linecap:round;"/><rect x="233.082" y="67.803" width="6.53" height="60.072" style="fill:none;stroke:#fff;stroke-width:1px;stroke-linecap:round;"/><rect x="242.96" y="67.803" width="6.53" height="60.072" style="fill:none;stroke:#fff;stroke-width:1px;stroke-linecap:round;"/><path d="M160.592,67.803l0,60.072" style="fill:none;stroke:#fff;stroke-width:1px;stroke-linecap:round;"/></g></g></svg>