<?xml version="1.0" encoding="UTF-8" standalone="no"?><!DOCTYPE svg PUBLIC "-//W3C//DTD SVG 1.1//EN" "http://www.w3.org/Graphics/SVG/1.1/DTD/svg11.dtd"><svg width="100%" height="100%" viewBox="0 0 626 194" version="1.1" xmlns="http://www.w3.org/2000/svg" xmlns:xlink="http://www.w3.org/1999/xlink" xml:space="preserve" xmlns:serif="http://www.serif.com/" style="fill-rule:evenodd;clip-rule:evenodd;stroke-linejoin:round;stroke-miterlimit:2;"><rect id="Ideen-Logo-White-3-Export" serif:id="Ideen Logo White 3 Export" x="-108.48" y="-198" width="841.89" height="589.367" style="fill:none;"/><g id="IFM"><path d="M38.865,184.085l-3.913,9.051l162.447,-16.78l3.976,-8.997l-162.51,16.726" style="fill:#808080;"/><path d="M77.393,104.119l-29.492,3.04l0,43.774l29.492,-3.031l0,-43.783" style="fill:#a6a6a6;"/><path d="M154.665,96.344l-29.492,3.041l0,43.773l29.492,-3.031l0,-43.783" style="fill:#a6a6a6;"/><path d="M77.393,103.986l0,43.916l38.739,-3.981l-38.739,-39.935" style="fill:#666;"/><path d="M153.598,96.131l0,43.917l38.739,-3.982l-38.739,-39.935" style="fill:#666;"/><path d="M38.865,63.623l0,120.462l162.51,-16.726l0,-120.367l-9.036,0.89l-0.002,88.193l-67.15,6.947l0,-88.175l-9.037,0.87l-0.018,88.204l-68.231,7.012l0,-88.202l-9.036,0.892" style="fill:#b3b3b3;"/><path d="M2.514,16.95l9.396,-0.969l34.225,36.926l-9.393,1.164l-34.228,-37.121Z" style="fill:#b3b3b3;"/><path d="M36.742,54.071l9.393,-1.164l1.699,9.45l0.067,0.374l-9.036,0.892l-2.123,-9.552" style="fill:#f2f2f2;"/><path d="M79.786,9.069l9.395,-0.969l34.226,36.926l-9.393,1.164l-34.228,-37.121Z" style="fill:#b3b3b3;"/><path d="M155.988,1.2l9.396,-0.969l34.226,36.926l-9.394,1.164l-34.228,-37.121Z" style="fill:#b3b3b3;"/><path d="M114.014,46.19l9.393,-1.164l1.699,9.45l0.067,0.374l-9.036,0.892l-2.123,-9.552" style="fill:#f2f2f2;"/><path d="M190.216,38.321l9.394,-1.164l1.699,9.45l0.066,0.373l-9.036,0.893l-2.123,-9.552" style="fill:#f2f2f2;"/><path d="M0.126,23.558l0,114.401l4.455,18.086l30.371,37.091l3.913,-9.051l0,-120.462l-2.123,-9.552l-34.228,-37.121l-2.388,6.608" style="fill:#d9d9d9;"/><path d="M77.393,15.708l0,88.278l38.739,39.935l0,-88.148l-2.123,-9.552l-34.228,-37.121l-2.388,6.608" style="fill:#d9d9d9;"/><path d="M153.598,7.82l0,88.278l38.739,39.935l0,-88.148l-2.123,-9.552l-34.228,-37.121l-2.388,6.608" style="fill:#d9d9d9;"/><path d="M77.393,103.986l38.739,-3.726l0,43.661l-38.739,-39.935Z" style="fill:#4d4d4d;"/><path d="M153.598,96.098l38.739,-3.726l0,43.661l-38.739,-39.935Z" style="fill:#4d4d4d;"/></g><g transform="matrix(1.40093,0,0,1.40093,-11550.5,-1554.29)"><text x="8408.26px" y="1191.29px" style="font-family:'Teko-Regular', 'Teko';font-size:50px;fill:#fff;">neutron</text><text x="8408.26px" y="1229.91px" style="font-family:'Teko-Regular', 'Teko';font-size:50px;fill:#fff;">interferometry.com</text></g></svg>