<?xml version="1.0" encoding="UTF-8" standalone="no"?><!DOCTYPE svg PUBLIC "-//W3C//DTD SVG 1.1//EN" "http://www.w3.org/Graphics/SVG/1.1/DTD/svg11.dtd"><svg width="100%" height="100%" viewBox="0 0 626 194" version="1.1" xmlns="http://www.w3.org/2000/svg" xmlns:xlink="http://www.w3.org/1999/xlink" xml:space="preserve" xmlns:serif="http://www.serif.com/" style="fill-rule:evenodd;clip-rule:evenodd;stroke-linejoin:round;stroke-miterlimit:2;"><rect id="Ideen-Logo-White-3-Export" serif:id="Ideen Logo White 3 Export" x="-108.48" y="-198" width="841.89" height="589.367" style="fill:none;"/><g id="IFM"><path d="M38.865,184.085l-3.913,9.051l162.447,-16.78l3.976,-8.997l-162.51,16.726" style="fill:#808080;"/><path d="M77.393,104.119l-29.492,3.04l0,43.774l29.492,-3.031l0,-43.783" style="fill:#a6a6a6;"/><path d="M154.665,96.344l-29.492,3.041l0,43.773l29.492,-3.031l0,-43.783" style="fill:#a6a6a6;"/><path d="M77.393,103.986l0,43.916l38.739,-3.981l-38.739,-39.935" style="fill:#666;"/><path d="M153.598,96.131l0,43.917l38.739,-3.982l-38.739,-39.935" style="fill:#666;"/><path d="M38.865,63.623l0,120.462l162.51,-16.726l0,-120.367l-9.036,0.89l-0.002,88.193l-67.15,6.947l0,-88.175l-9.037,0.87l-0.018,88.204l-68.231,7.012l0,-88.202l-9.036,0.892" style="fill:#b3b3b3;"/><path d="M2.514,16.95l9.396,-0.969l34.225,36.926l-9.393,1.164l-34.228,-37.121Z" style="fill:#b3b3b3;"/><path d="M36.742,54.071l9.393,-1.164l1.699,9.45l0.067,0.374l-9.036,0.892l-2.123,-9.552" style="fill:#f2f2f2;"/><path d="M79.786,9.069l9.395,-0.969l34.226,36.926l-9.393,1.164l-34.228,-37.121Z" style="fill:#b3b3b3;"/><path d="M155.988,1.2l9.396,-0.969l34.226,36.926l-9.394,1.164l-34.228,-37.121Z" style="fill:#b3b3b3;"/><path d="M114.014,46.19l9.393,-1.164l1.699,9.45l0.067,0.374l-9.036,0.892l-2.123,-9.552" style="fill:#f2f2f2;"/><path d="M190.216,38.321l9.394,-1.164l1.699,9.45l0.066,0.373l-9.036,0.893l-2.123,-9.552" style="fill:#f2f2f2;"/><path d="M0.126,23.558l0,114.401l4.455,18.086l30.371,37.091l3.913,-9.051l0,-120.462l-2.123,-9.552l-34.228,-37.121l-2.388,6.608" style="fill:#d9d9d9;"/><path d="M77.393,15.708l0,88.278l38.739,39.935l0,-88.148l-2.123,-9.552l-34.228,-37.121l-2.388,6.608" style="fill:#d9d9d9;"/><path d="M153.598,7.82l0,88.278l38.739,39.935l0,-88.148l-2.123,-9.552l-34.228,-37.121l-2.388,6.608" style="fill:#d9d9d9;"/><path d="M77.393,103.986l38.739,-3.726l0,43.661l-38.739,-39.935Z" style="fill:#4d4d4d;"/><path d="M153.598,96.098l38.739,-3.726l0,43.661l-38.739,-39.935Z" style="fill:#4d4d4d;"/></g><g transform="matrix(1.40093,0,0,1.40093,-11550.5,-1554.29)"><g transform="matrix(50,0,0,50,8408.26,1191.29)"><path d="M0.196,-0.488l0.035,0c0.061,0 0.091,0.03 0.091,0.089l0,0.399l-0.09,0l0,-0.386c0,-0.012 -0.002,-0.02 -0.006,-0.023c-0.004,-0.004 -0.012,-0.006 -0.024,-0.006l-0.035,0c-0.012,0 -0.021,0.003 -0.026,0.008c-0.005,0.005 -0.007,0.014 -0.007,0.027l0,0.38l-0.09,0l0,-0.488l0.09,0l0,0.039c0.009,-0.026 0.029,-0.039 0.062,-0.039Z" style="fill:#fff;fill-rule:nonzero;"/></g><g transform="matrix(50,0,0,50,8426.51,1191.29)"><path d="M0.135,-0.488l0.098,0c0.063,0 0.094,0.03 0.094,0.089l0,0.183l-0.197,0l0,0.116c0,0.011 0.002,0.019 0.006,0.023c0.004,0.004 0.012,0.006 0.024,0.006l0.046,0c0.012,0 0.02,-0.002 0.024,-0.006c0.004,-0.004 0.006,-0.012 0.006,-0.024l0,-0.04l0.088,0l0,0.053c0,0.059 -0.031,0.088 -0.093,0.088l-0.096,0c-0.062,0 -0.093,-0.029 -0.093,-0.088l0,-0.311c0,-0.059 0.031,-0.089 0.093,-0.089Zm-0.005,0.206l0.108,0l0,-0.106c0,-0.011 -0.002,-0.019 -0.005,-0.023c-0.004,-0.004 -0.012,-0.006 -0.024,-0.006l-0.049,0c-0.012,0 -0.02,0.002 -0.024,0.006c-0.004,0.004 -0.006,0.012 -0.006,0.023l0,0.106Z" style="fill:#fff;fill-rule:nonzero;"/></g><g transform="matrix(50,0,0,50,8444.51,1191.29)"><path d="M0.231,-0.488l0.09,0l0,0.488l-0.09,0l0,-0.039c-0.009,0.026 -0.029,0.039 -0.062,0.039l-0.036,0c-0.06,0 -0.09,-0.029 -0.09,-0.088l0,-0.4l0.09,0l0,0.386c0,0.012 0.002,0.02 0.006,0.023c0.004,0.004 0.012,0.006 0.024,0.006l0.035,0c0.012,0 0.02,-0.003 0.025,-0.008c0.006,-0.005 0.008,-0.014 0.008,-0.027l0,-0.38Z" style="fill:#fff;fill-rule:nonzero;"/></g><g transform="matrix(50,0,0,50,8462.76,1191.29)"><path d="M0.209,-0.415l-0.067,0l0,0.309c0,0.012 0.002,0.02 0.006,0.024c0.003,0.003 0.011,0.005 0.023,0.005l0.038,0l0,0.077l-0.064,0c-0.063,0 -0.094,-0.029 -0.094,-0.088l0,-0.327l-0.046,0l0,-0.073l0.046,0l0,-0.083l0.091,0l0,0.083l0.067,0l0,0.073Z" style="fill:#fff;fill-rule:nonzero;"/></g><g transform="matrix(50,0,0,50,8473.71,1191.29)"><path d="M0.213,-0.489l0.02,0l0,0.078l-0.036,0c-0.042,0 -0.063,0.025 -0.063,0.074l0,0.337l-0.09,0l0,-0.488l0.09,0l0,0.06c0.005,-0.017 0.015,-0.032 0.029,-0.044c0.013,-0.011 0.03,-0.017 0.05,-0.017Z" style="fill:#fff;fill-rule:nonzero;"/></g><g transform="matrix(50,0,0,50,8485.61,1191.29)"><path d="M0.131,-0.488l0.107,0c0.062,0 0.093,0.03 0.093,0.089l0,0.311c0,0.059 -0.031,0.088 -0.093,0.088l-0.107,0c-0.061,0 -0.092,-0.029 -0.092,-0.088l0,-0.311c0,-0.059 0.031,-0.089 0.092,-0.089Zm0.111,0.387l0,-0.286c0,-0.012 -0.002,-0.02 -0.006,-0.024c-0.004,-0.004 -0.012,-0.006 -0.024,-0.006l-0.055,0c-0.012,0 -0.02,0.002 -0.023,0.006c-0.004,0.004 -0.006,0.012 -0.006,0.024l0,0.286c0,0.012 0.002,0.02 0.006,0.024c0.003,0.004 0.011,0.006 0.023,0.006l0.055,0c0.012,0 0.02,-0.002 0.024,-0.006c0.004,-0.004 0.006,-0.012 0.006,-0.024Z" style="fill:#fff;fill-rule:nonzero;"/></g><g transform="matrix(50,0,0,50,8504.11,1191.29)"><path d="M0.196,-0.488l0.035,0c0.061,0 0.091,0.03 0.091,0.089l0,0.399l-0.09,0l0,-0.386c0,-0.012 -0.002,-0.02 -0.006,-0.023c-0.004,-0.004 -0.012,-0.006 -0.024,-0.006l-0.035,0c-0.012,0 -0.021,0.003 -0.026,0.008c-0.005,0.005 -0.007,0.014 -0.007,0.027l0,0.38l-0.09,0l0,-0.488l0.09,0l0,0.039c0.009,-0.026 0.029,-0.039 0.062,-0.039Z" style="fill:#fff;fill-rule:nonzero;"/></g><g transform="matrix(50,0,0,50,8408.26,1229.91)"><path d="M0.042,-0.581l0,-0.089l0.094,0l0,0.089l-0.094,0Zm0.092,0.581l-0.09,0l0,-0.488l0.09,0l0,0.488Z" style="fill:#fff;fill-rule:nonzero;"/></g><g transform="matrix(50,0,0,50,8417.16,1229.91)"><path d="M0.196,-0.488l0.035,0c0.061,0 0.091,0.03 0.091,0.089l0,0.399l-0.09,0l0,-0.386c0,-0.012 -0.002,-0.02 -0.006,-0.023c-0.004,-0.004 -0.012,-0.006 -0.024,-0.006l-0.035,0c-0.012,0 -0.021,0.003 -0.026,0.008c-0.005,0.005 -0.007,0.014 -0.007,0.027l0,0.38l-0.09,0l0,-0.488l0.09,0l0,0.039c0.009,-0.026 0.029,-0.039 0.062,-0.039Z" style="fill:#fff;fill-rule:nonzero;"/></g><g transform="matrix(50,0,0,50,8435.41,1229.91)"><path d="M0.209,-0.415l-0.067,0l0,0.309c0,0.012 0.002,0.02 0.006,0.024c0.003,0.003 0.011,0.005 0.023,0.005l0.038,0l0,0.077l-0.064,0c-0.063,0 -0.094,-0.029 -0.094,-0.088l0,-0.327l-0.046,0l0,-0.073l0.046,0l0,-0.083l0.091,0l0,0.083l0.067,0l0,0.073Z" style="fill:#fff;fill-rule:nonzero;"/></g><g transform="matrix(50,0,0,50,8446.36,1229.91)"><path d="M0.135,-0.488l0.098,0c0.063,0 0.094,0.03 0.094,0.089l0,0.183l-0.197,0l0,0.116c0,0.011 0.002,0.019 0.006,0.023c0.004,0.004 0.012,0.006 0.024,0.006l0.046,0c0.012,0 0.02,-0.002 0.024,-0.006c0.004,-0.004 0.006,-0.012 0.006,-0.024l0,-0.04l0.088,0l0,0.053c0,0.059 -0.031,0.088 -0.093,0.088l-0.096,0c-0.062,0 -0.093,-0.029 -0.093,-0.088l0,-0.311c0,-0.059 0.031,-0.089 0.093,-0.089Zm-0.005,0.206l0.108,0l0,-0.106c0,-0.011 -0.002,-0.019 -0.005,-0.023c-0.004,-0.004 -0.012,-0.006 -0.024,-0.006l-0.049,0c-0.012,0 -0.02,0.002 -0.024,0.006c-0.004,0.004 -0.006,0.012 -0.006,0.023l0,0.106Z" style="fill:#fff;fill-rule:nonzero;"/></g><g transform="matrix(50,0,0,50,8464.36,1229.91)"><path d="M0.213,-0.489l0.02,0l0,0.078l-0.036,0c-0.042,0 -0.063,0.025 -0.063,0.074l0,0.337l-0.09,0l0,-0.488l0.09,0l0,0.06c0.005,-0.017 0.015,-0.032 0.029,-0.044c0.013,-0.011 0.03,-0.017 0.05,-0.017Z" style="fill:#fff;fill-rule:nonzero;"/></g><g transform="matrix(50,0,0,50,8476.26,1229.91)"><path d="M0.217,-0.593l-0.042,0c-0.012,0 -0.02,0.002 -0.024,0.005c-0.004,0.004 -0.006,0.012 -0.006,0.024l0,0.076l0.072,0l0,0.073l-0.072,0l0,0.415l-0.09,0l0,-0.415l-0.049,0l0,-0.073l0.049,0l0,-0.093c0,-0.059 0.031,-0.088 0.093,-0.088l0.069,0l0,0.076Z" style="fill:#fff;fill-rule:nonzero;"/></g><g transform="matrix(50,0,0,50,8487.36,1229.91)"><path d="M0.135,-0.488l0.098,0c0.063,0 0.094,0.03 0.094,0.089l0,0.183l-0.197,0l0,0.116c0,0.011 0.002,0.019 0.006,0.023c0.004,0.004 0.012,0.006 0.024,0.006l0.046,0c0.012,0 0.02,-0.002 0.024,-0.006c0.004,-0.004 0.006,-0.012 0.006,-0.024l0,-0.04l0.088,0l0,0.053c0,0.059 -0.031,0.088 -0.093,0.088l-0.096,0c-0.062,0 -0.093,-0.029 -0.093,-0.088l0,-0.311c0,-0.059 0.031,-0.089 0.093,-0.089Zm-0.005,0.206l0.108,0l0,-0.106c0,-0.011 -0.002,-0.019 -0.005,-0.023c-0.004,-0.004 -0.012,-0.006 -0.024,-0.006l-0.049,0c-0.012,0 -0.02,0.002 -0.024,0.006c-0.004,0.004 -0.006,0.012 -0.006,0.023l0,0.106Z" style="fill:#fff;fill-rule:nonzero;"/></g><g transform="matrix(50,0,0,50,8505.36,1229.91)"><path d="M0.213,-0.489l0.02,0l0,0.078l-0.036,0c-0.042,0 -0.063,0.025 -0.063,0.074l0,0.337l-0.09,0l0,-0.488l0.09,0l0,0.06c0.005,-0.017 0.015,-0.032 0.029,-0.044c0.013,-0.011 0.03,-0.017 0.05,-0.017Z" style="fill:#fff;fill-rule:nonzero;"/></g><g transform="matrix(50,0,0,50,8517.26,1229.91)"><path d="M0.131,-0.488l0.107,0c0.062,0 0.093,0.03 0.093,0.089l0,0.311c0,0.059 -0.031,0.088 -0.093,0.088l-0.107,0c-0.061,0 -0.092,-0.029 -0.092,-0.088l0,-0.311c0,-0.059 0.031,-0.089 0.092,-0.089Zm0.111,0.387l0,-0.286c0,-0.012 -0.002,-0.02 -0.006,-0.024c-0.004,-0.004 -0.012,-0.006 -0.024,-0.006l-0.055,0c-0.012,0 -0.02,0.002 -0.023,0.006c-0.004,0.004 -0.006,0.012 -0.006,0.024l0,0.286c0,0.012 0.002,0.02 0.006,0.024c0.003,0.004 0.011,0.006 0.023,0.006l0.055,0c0.012,0 0.02,-0.002 0.024,-0.006c0.004,-0.004 0.006,-0.012 0.006,-0.024Z" style="fill:#fff;fill-rule:nonzero;"/></g><g transform="matrix(50,0,0,50,8535.76,1229.91)"><path d="M0.384,-0.488l0.035,0c0.06,0 0.09,0.03 0.09,0.089l0,0.399l-0.09,0l0,-0.386c0,-0.012 -0.002,-0.02 -0.006,-0.023c-0.003,-0.004 -0.011,-0.006 -0.023,-0.006l-0.036,0c-0.021,0 -0.032,0.012 -0.032,0.035l0,0.38l-0.09,0l0,-0.386c0,-0.012 -0.002,-0.02 -0.006,-0.023c-0.004,-0.004 -0.012,-0.006 -0.024,-0.006l-0.035,0c-0.012,0 -0.02,0.003 -0.025,0.008c-0.005,0.005 -0.008,0.014 -0.008,0.027l0,0.38l-0.09,0l0,-0.488l0.09,0l0,0.039c0.009,-0.026 0.029,-0.039 0.062,-0.039l0.035,0c0.043,0 0.07,0.015 0.083,0.045c0.008,-0.03 0.031,-0.045 0.07,-0.045Z" style="fill:#fff;fill-rule:nonzero;"/></g><g transform="matrix(50,0,0,50,8563.16,1229.91)"><path d="M0.135,-0.488l0.098,0c0.063,0 0.094,0.03 0.094,0.089l0,0.183l-0.197,0l0,0.116c0,0.011 0.002,0.019 0.006,0.023c0.004,0.004 0.012,0.006 0.024,0.006l0.046,0c0.012,0 0.02,-0.002 0.024,-0.006c0.004,-0.004 0.006,-0.012 0.006,-0.024l0,-0.04l0.088,0l0,0.053c0,0.059 -0.031,0.088 -0.093,0.088l-0.096,0c-0.062,0 -0.093,-0.029 -0.093,-0.088l0,-0.311c0,-0.059 0.031,-0.089 0.093,-0.089Zm-0.005,0.206l0.108,0l0,-0.106c0,-0.011 -0.002,-0.019 -0.005,-0.023c-0.004,-0.004 -0.012,-0.006 -0.024,-0.006l-0.049,0c-0.012,0 -0.02,0.002 -0.024,0.006c-0.004,0.004 -0.006,0.012 -0.006,0.023l0,0.106Z" style="fill:#fff;fill-rule:nonzero;"/></g><g transform="matrix(50,0,0,50,8581.16,1229.91)"><path d="M0.209,-0.415l-0.067,0l0,0.309c0,0.012 0.002,0.02 0.006,0.024c0.003,0.003 0.011,0.005 0.023,0.005l0.038,0l0,0.077l-0.064,0c-0.063,0 -0.094,-0.029 -0.094,-0.088l0,-0.327l-0.046,0l0,-0.073l0.046,0l0,-0.083l0.091,0l0,0.083l0.067,0l0,0.073Z" style="fill:#fff;fill-rule:nonzero;"/></g><g transform="matrix(50,0,0,50,8592.11,1229.91)"><path d="M0.213,-0.489l0.02,0l0,0.078l-0.036,0c-0.042,0 -0.063,0.025 -0.063,0.074l0,0.337l-0.09,0l0,-0.488l0.09,0l0,0.06c0.005,-0.017 0.015,-0.032 0.029,-0.044c0.013,-0.011 0.03,-0.017 0.05,-0.017Z" style="fill:#fff;fill-rule:nonzero;"/></g><g transform="matrix(50,0,0,50,8604.01,1229.91)"><path d="M0.116,0.138l-0.06,0l0,-0.072l0.041,0c0.029,0 0.046,-0.011 0.052,-0.033l0.01,-0.041l-0.049,0l-0.102,-0.48l0.092,0l0.074,0.409l0.069,-0.409l0.091,0l-0.103,0.535c-0.015,0.061 -0.053,0.091 -0.115,0.091Z" style="fill:#fff;fill-rule:nonzero;"/></g><g transform="matrix(50,0,0,50,8621.11,1229.91)"><rect x="0.032" y="-0.123" width="0.101" height="0.123" style="fill:#fff;fill-rule:nonzero;"/></g><g transform="matrix(50,0,0,50,8629.36,1229.91)"><path d="M0.32,-0.334l-0.089,0l0,-0.052c0,-0.012 -0.002,-0.02 -0.006,-0.023c-0.004,-0.004 -0.012,-0.006 -0.024,-0.006l-0.043,0c-0.012,0 -0.02,0.002 -0.024,0.006c-0.004,0.003 -0.006,0.011 -0.006,0.023l0,0.284c0,0.012 0.002,0.02 0.006,0.023c0.004,0.004 0.012,0.006 0.024,0.006l0.043,0c0.012,0 0.02,-0.002 0.024,-0.006c0.004,-0.003 0.006,-0.011 0.006,-0.023l0,-0.052l0.089,0l0,0.066c0,0.059 -0.031,0.088 -0.094,0.088l-0.095,0c-0.062,0 -0.093,-0.029 -0.093,-0.088l0,-0.311c0,-0.059 0.031,-0.089 0.093,-0.089l0.095,0c0.063,0 0.094,0.03 0.094,0.089l0,0.065Z" style="fill:#fff;fill-rule:nonzero;"/></g><g transform="matrix(50,0,0,50,8646.91,1229.91)"><path d="M0.131,-0.488l0.107,0c0.062,0 0.093,0.03 0.093,0.089l0,0.311c0,0.059 -0.031,0.088 -0.093,0.088l-0.107,0c-0.061,0 -0.092,-0.029 -0.092,-0.088l0,-0.311c0,-0.059 0.031,-0.089 0.092,-0.089Zm0.111,0.387l0,-0.286c0,-0.012 -0.002,-0.02 -0.006,-0.024c-0.004,-0.004 -0.012,-0.006 -0.024,-0.006l-0.055,0c-0.012,0 -0.02,0.002 -0.023,0.006c-0.004,0.004 -0.006,0.012 -0.006,0.024l0,0.286c0,0.012 0.002,0.02 0.006,0.024c0.003,0.004 0.011,0.006 0.023,0.006l0.055,0c0.012,0 0.02,-0.002 0.024,-0.006c0.004,-0.004 0.006,-0.012 0.006,-0.024Z" style="fill:#fff;fill-rule:nonzero;"/></g><g transform="matrix(50,0,0,50,8665.41,1229.91)"><path d="M0.384,-0.488l0.035,0c0.06,0 0.09,0.03 0.09,0.089l0,0.399l-0.09,0l0,-0.386c0,-0.012 -0.002,-0.02 -0.006,-0.023c-0.003,-0.004 -0.011,-0.006 -0.023,-0.006l-0.036,0c-0.021,0 -0.032,0.012 -0.032,0.035l0,0.38l-0.09,0l0,-0.386c0,-0.012 -0.002,-0.02 -0.006,-0.023c-0.004,-0.004 -0.012,-0.006 -0.024,-0.006l-0.035,0c-0.012,0 -0.02,0.003 -0.025,0.008c-0.005,0.005 -0.008,0.014 -0.008,0.027l0,0.38l-0.09,0l0,-0.488l0.09,0l0,0.039c0.009,-0.026 0.029,-0.039 0.062,-0.039l0.035,0c0.043,0 0.07,0.015 0.083,0.045c0.008,-0.03 0.031,-0.045 0.07,-0.045Z" style="fill:#fff;fill-rule:nonzero;"/></g></g></svg>